<?xml version="1.0" encoding="UTF-8" standalone="no"?>
<!DOCTYPE svg PUBLIC "-//W3C//DTD SVG 1.1//EN" "http://www.w3.org/Graphics/SVG/1.1/DTD/svg11.dtd">
<svg width="100%" height="100%" viewBox="0 0 107 97" version="1.1" xmlns="http://www.w3.org/2000/svg" xmlns:xlink="http://www.w3.org/1999/xlink" xml:space="preserve" style="fill-rule:evenodd;clip-rule:evenodd;stroke-linejoin:round;stroke-miterlimit:1.41421;">
    <g transform="matrix(1,0,0,1,-49.5899,-60.2068)">
        <g transform="matrix(0.462821,0,0,0.438949,335.43,161.318)">
            <g transform="matrix(1,0,0,1,-617.603,-230.348)">
                <path d="M199.623,140.796L199.626,140.812L199.626,140.796L199.623,140.796Z" style="fill:white;fill-rule:nonzero;"/>
            </g>
            <g transform="matrix(1,0,0,1,-617.603,-230.348)">
                <path d="M95.075,117.6L95.075,117.615L95.077,117.6L95.075,117.6Z" style="fill:white;fill-rule:nonzero;"/>
            </g>
            <g transform="matrix(1,0,0,1,-617.603,-230.348)">
                <path d="M57.252,157.029L57.252,157.039L57.253,157.029L57.252,157.029Z" style="fill:white;fill-rule:nonzero;"/>
            </g>
            <g transform="matrix(1,0,0,1,-617.603,-230.348)">
                <path d="M76.931,141.1L76.931,141.092L76.931,141.1Z" style="fill:white;fill-rule:nonzero;"/>
            </g>
            <g transform="matrix(1,0,0,1,-617.603,-230.348)">
                <path d="M175.971,131.783L175.973,131.791L175.973,131.783L175.971,131.783Z" style="fill:white;fill-rule:nonzero;"/>
            </g>
            <g transform="matrix(1,0,0,1,-617.603,-230.348)">
                <path d="M137.799,54.796C138.865,56.332 140.889,57.037 142.719,56.496C143.178,56.361 143.611,56.151 144.01,55.876C146.006,54.466 146.5,51.692 145.108,49.698C144.283,48.51 142.899,47.801 141.401,47.801C140.488,47.801 139.621,48.07 138.893,48.577C136.881,49.984 136.389,52.775 137.799,54.796" style="fill:white;fill-rule:nonzero;"/>
            </g>
            <g transform="matrix(1,0,0,1,-617.603,-230.348)">
                <path d="M126.408,43.661C126.482,45.049 127.088,46.307 128.107,47.2C129.449,48.427 131.318,48.849 133.043,48.344C133.97,48.067 134.799,47.541 135.433,46.824C136.363,45.794 136.83,44.471 136.756,43.089C136.679,41.707 136.072,40.435 135.041,39.507C134.137,38.696 132.922,38.248 131.623,38.248C130.101,38.248 128.685,38.858 127.738,39.923C126.804,40.944 126.336,42.268 126.408,43.661" style="fill:white;fill-rule:nonzero;"/>
            </g>
            <g transform="matrix(1,0,0,1,-617.603,-230.348)">
                <path d="M115.026,41.1C115.925,41.596 116.937,41.859 117.947,41.859C118.523,41.859 119.099,41.776 119.658,41.61C121.191,41.159 122.455,40.144 123.213,38.751C124,37.34 124.187,35.716 123.746,34.169C123.302,32.617 122.283,31.335 120.875,30.562C120.045,30.108 119.08,29.867 118.084,29.867C115.825,29.867 113.699,31.065 112.666,32.919C111.082,35.821 112.137,39.494 115.026,41.1" style="fill:white;fill-rule:nonzero;"/>
            </g>
            <g transform="matrix(1,0,0,1,-617.603,-230.348)">
                <path d="M98.431,37.582C99.658,37.922 101.029,37.915 102.294,37.547C104.627,36.855 106.421,35.054 107.087,32.727C107.598,30.93 107.378,29.032 106.468,27.384C105.557,25.744 104.062,24.554 102.256,24.033C101.685,23.872 101.082,23.789 100.472,23.789C97.326,23.789 94.414,25.931 93.554,28.882C92.52,32.585 94.705,36.493 98.431,37.582" style="fill:white;fill-rule:nonzero;"/>
            </g>
            <g transform="matrix(1,0,0,1,-617.603,-230.348)">
                <path d="M78.356,37.871C79.3,37.923 80.215,37.809 81.108,37.547C84.441,36.562 86.799,33.575 86.972,30.113C87.088,27.91 86.335,25.796 84.848,24.159C83.38,22.539 81.38,21.593 79.215,21.493L78.812,21.482C74.513,21.482 70.821,24.981 70.582,29.283C70.366,33.794 73.854,37.65 78.356,37.871" style="fill:white;fill-rule:nonzero;"/>
            </g>
            <g transform="matrix(1,0,0,1,-617.603,-230.348)">
                <path d="M44.358,35.782C45.173,40.368 49.149,43.696 53.811,43.697L53.812,43.697C54.369,43.697 54.931,43.647 55.486,43.55C55.837,43.49 56.184,43.408 56.521,43.31C61.199,41.928 64.095,37.258 63.251,32.446C62.419,27.873 58.444,24.548 53.802,24.548C53.247,24.548 52.686,24.597 52.135,24.694C46.934,25.668 43.441,30.642 44.358,35.782" style="fill:white;fill-rule:nonzero;"/>
            </g>
            <g transform="matrix(1,0,0,1,-617.603,-230.348)">
                <path d="M139.439,71.806C140.363,70.78 140.83,69.452 140.753,68.066C140.677,66.683 140.068,65.42 139.038,64.508C138.123,63.676 136.904,63.222 135.597,63.222C134.089,63.222 132.689,63.825 131.761,64.873C130.828,65.899 130.357,67.222 130.427,68.611C130.49,69.987 131.089,71.254 132.117,72.186C133.079,73.04 134.312,73.516 135.587,73.517C136.087,73.517 136.587,73.444 137.073,73.3C137.984,73.033 138.8,72.516 139.439,71.806" style="fill:white;fill-rule:nonzero;"/>
            </g>
            <g transform="matrix(1,0,0,1,-617.603,-230.348)">
                <path d="M127.748,59.14C127.295,57.59 126.266,56.301 124.855,55.521C124.019,55.064 123.053,54.82 122.059,54.82C119.799,54.82 117.725,56 116.646,57.902C115.078,60.82 116.151,64.496 119.049,66.078C119.947,66.572 120.949,66.831 121.947,66.831C122.521,66.831 123.096,66.748 123.654,66.584C125.193,66.128 126.453,65.111 127.199,63.716C127.994,62.304 128.184,60.688 127.748,59.14" style="fill:white;fill-rule:nonzero;"/>
            </g>
            <g transform="matrix(1,0,0,1,-617.603,-230.348)">
                <path d="M111.088,57.68C111.59,55.887 111.366,53.986 110.455,52.334C109.54,50.701 108.045,49.52 106.251,49.01C105.669,48.843 105.065,48.76 104.452,48.76C101.304,48.76 98.407,50.894 97.567,53.836C96.504,57.556 98.669,61.451 102.392,62.522C103.668,62.878 105.036,62.876 106.308,62.501C108.622,61.815 110.409,60.013 111.088,57.68" style="fill:white;fill-rule:nonzero;"/>
            </g>
            <g transform="matrix(1,0,0,1,-617.603,-230.348)">
                <path d="M90.968,55.076C91.086,52.883 90.338,50.776 88.861,49.147C87.391,47.525 85.388,46.575 83.217,46.472C83.071,46.464 82.93,46.46 82.792,46.46C78.572,46.46 74.818,50.018 74.593,54.23C74.362,58.738 77.847,62.599 82.363,62.835C82.522,62.844 82.678,62.848 82.831,62.848C83.605,62.848 84.373,62.736 85.12,62.517C88.428,61.539 90.779,58.549 90.968,55.076" style="fill:white;fill-rule:nonzero;"/>
            </g>
            <g transform="matrix(1,0,0,1,-617.603,-230.348)">
                <path d="M57.775,49.502C57.223,49.502 56.667,49.551 56.119,49.648C50.929,50.545 47.444,55.526 48.345,60.75C48.793,63.274 50.197,65.475 52.301,66.94C54.383,68.395 56.953,68.961 59.46,68.511C59.834,68.446 60.185,68.361 60.536,68.26C65.191,66.885 68.075,62.219 67.243,57.408C66.408,52.831 62.426,49.502 57.775,49.502" style="fill:white;fill-rule:nonzero;"/>
            </g>
            <g transform="matrix(1,0,0,1,-617.603,-230.348)">
                <path d="M20.013,75.151C21.776,79.302 25.814,81.986 30.299,81.986C31.36,81.986 32.416,81.834 33.441,81.531C33.865,81.407 34.293,81.251 34.714,81.073C37.491,79.885 39.633,77.701 40.743,74.921C41.855,72.156 41.819,69.127 40.644,66.387C38.882,62.242 34.834,59.566 30.327,59.566C28.823,59.566 27.35,59.868 25.947,60.463C20.269,62.881 17.606,69.47 20.013,75.151" style="fill:white;fill-rule:nonzero;"/>
            </g>
            <g transform="matrix(1,0,0,1,-617.603,-230.348)">
                <path d="M136.064,83.098C135.222,82.631 134.248,82.385 133.242,82.385C130.988,82.385 128.882,83.581 127.875,85.431C126.265,88.342 127.318,92.009 130.218,93.614C131.636,94.415 133.299,94.602 134.845,94.144C136.369,93.694 137.648,92.668 138.448,91.257C140.029,88.364 138.962,84.697 136.064,83.098" style="fill:white;fill-rule:nonzero;"/>
            </g>
            <g transform="matrix(1,0,0,1,-617.603,-230.348)">
                <path d="M109.363,86.763C110.271,88.396 111.764,89.58 113.565,90.1C114.19,90.273 114.842,90.362 115.494,90.362C116.174,90.362 116.847,90.265 117.494,90.075C119.824,89.388 121.611,87.586 122.273,85.254C123.316,81.522 121.152,77.626 117.451,76.578C116.861,76.408 116.251,76.323 115.632,76.323C112.504,76.323 109.611,78.452 108.755,81.388C108.232,83.196 108.449,85.106 109.363,86.763" style="fill:white;fill-rule:nonzero;"/>
            </g>
            <g transform="matrix(1,0,0,1,-617.603,-230.348)">
                <path d="M102.179,82.632C102.401,78.119 98.907,74.255 94.388,74.025L94.001,74.015C89.763,74.015 86.002,77.572 85.79,81.784C85.549,86.297 89.032,90.166 93.552,90.41L93.954,90.419C94.754,90.419 95.541,90.307 96.294,90.084C99.615,89.103 101.98,86.109 102.179,82.632" style="fill:white;fill-rule:nonzero;"/>
            </g>
            <g transform="matrix(1,0,0,1,-617.603,-230.348)">
                <path d="M68.995,96.235C69.547,96.235 70.105,96.185 70.653,96.089C71.013,96.027 71.358,95.944 71.698,95.842C76.388,94.461 79.276,89.791 78.421,84.979C77.6,80.388 73.628,77.054 68.975,77.054C68.42,77.054 67.858,77.103 67.307,77.201C62.116,78.125 58.639,83.121 59.556,88.339C60.375,92.912 64.345,96.235 68.995,96.235" style="fill:white;fill-rule:nonzero;"/>
            </g>
            <g transform="matrix(1,0,0,1,-617.603,-230.348)">
                <path d="M51.925,102.529C53.05,99.739 53.023,96.694 51.848,93.954C50.102,89.884 45.921,87.15 41.444,87.15C39.951,87.15 38.505,87.448 37.146,88.035C34.38,89.196 32.244,91.356 31.122,94.12C29.99,96.902 30.02,99.96 31.205,102.731C32.975,106.876 37.021,109.553 41.515,109.553L41.516,109.553C42.584,109.553 43.65,109.399 44.683,109.094C45.099,108.971 45.505,108.826 45.911,108.652C48.669,107.485 50.805,105.31 51.925,102.529" style="fill:white;fill-rule:nonzero;"/>
            </g>
            <g transform="matrix(1,0,0,1,-617.603,-230.348)">
                <path d="M23.737,111.29C21.267,107.904 17.292,105.883 13.102,105.883C11.848,105.883 10.604,106.064 9.402,106.42C7.968,106.842 6.617,107.51 5.385,108.406C2.56,110.463 0.705,113.504 0.162,116.971C-0.382,120.437 0.452,123.902 2.51,126.73C4.972,130.119 8.952,132.144 13.154,132.144C14.406,132.144 15.649,131.965 16.85,131.611C18.281,131.191 19.629,130.525 20.856,129.635C26.701,125.357 27.995,117.127 23.737,111.29" style="fill:white;fill-rule:nonzero;"/>
            </g>
            <g transform="matrix(1,0,0,1,-617.603,-230.348)">
                <path d="M164.924,157.262C164.729,154.979 162.77,153.188 160.471,153.188C160.342,153.188 160.213,153.194 160.084,153.203C158.186,153.364 156.606,154.735 156.153,156.616C156.041,157.082 156.006,157.551 156.045,158.049C156.254,160.315 158.194,162.096 160.465,162.096C160.592,162.096 160.719,162.09 160.848,162.08C161.998,161.987 163.096,161.408 163.867,160.494C164.649,159.573 165.024,158.424 164.924,157.262" style="fill:white;fill-rule:nonzero;"/>
            </g>
            <g transform="matrix(1,0,0,1,-617.603,-230.348)">
                <path d="M168.055,152.308C167.83,153.252 167.869,154.232 168.172,155.148C169.034,157.8 172.016,159.335 174.705,158.462C175.948,158.056 177.022,157.103 177.653,155.855C178.284,154.603 178.409,153.174 177.996,151.93C177.578,150.605 176.666,149.538 175.426,148.913C174.7,148.54 173.899,148.345 173.106,148.345C172.563,148.345 172.026,148.436 171.508,148.611C169.76,149.163 168.477,150.543 168.055,152.308" style="fill:white;fill-rule:nonzero;"/>
            </g>
            <g transform="matrix(1,0,0,1,-617.603,-230.348)">
                <path d="M180.578,144.088C180.199,145.641 180.447,147.238 181.275,148.596C182.105,149.984 183.416,150.957 184.976,151.346C185.463,151.469 185.963,151.531 186.455,151.531L186.457,151.531C187.537,151.531 188.599,151.231 189.533,150.664C192.279,149 193.246,145.129 191.599,142.381C190.51,140.596 188.521,139.483 186.412,139.483C185.328,139.483 184.264,139.776 183.334,140.33C181.937,141.174 180.957,142.508 180.578,144.088" style="fill:white;fill-rule:nonzero;"/>
            </g>
            <g transform="matrix(1,0,0,1,-617.603,-230.348)">
                <path d="M199.625,139.777C201.447,139.777 203.178,139.076 204.498,137.804C207.168,135.211 207.24,130.554 204.65,127.843C203.328,126.494 201.535,125.746 199.611,125.746C197.762,125.746 196.01,126.447 194.676,127.718C193.75,128.627 193.09,129.793 192.777,131.08C192.207,133.449 192.871,135.902 194.553,137.64C195.857,138.984 197.611,139.742 199.49,139.775L199.623,140.797L199.625,140.797L199.625,139.777Z" style="fill:white;fill-rule:nonzero;"/>
            </g>
            <g transform="matrix(1,0,0,1,-617.603,-230.348)">
                <path d="M218.219,119.123C220.635,115.396 219.52,110.19 215.789,107.752C214.465,106.9 212.93,106.449 211.356,106.449C208.549,106.449 205.973,107.848 204.463,110.192C203.957,110.974 203.588,111.828 203.367,112.736C202.553,116.113 203.963,119.648 206.875,121.529C208.211,122.398 209.752,122.857 211.33,122.857C211.916,122.857 212.51,122.795 213.094,122.67C215.227,122.207 217.049,120.945 218.219,119.123" style="fill:white;fill-rule:nonzero;"/>
            </g>
            <g transform="matrix(1,0,0,1,-617.603,-230.348)">
                <path d="M223.273,81.791C222.22,81.409 221.125,81.216 220.015,81.216C215.992,81.216 212.359,83.759 210.98,87.543C210.855,87.879 210.755,88.221 210.669,88.562C209.527,93.304 212.125,98.146 216.714,99.819C217.753,100.191 218.841,100.381 219.943,100.381C223.98,100.381 227.613,97.844 228.984,94.069C230.742,89.079 228.181,83.567 223.273,81.791" style="fill:white;fill-rule:nonzero;"/>
            </g>
            <g transform="matrix(1,0,0,1,-617.603,-230.348)">
                <path d="M144.426,143.326C144.201,144.248 144.239,145.215 144.535,146.121C144.961,147.437 145.879,148.502 147.115,149.127C147.848,149.498 148.627,149.687 149.436,149.687C149.983,149.687 150.53,149.597 151.061,149.422C152.319,149.019 153.399,148.072 154.031,146.822C154.662,145.582 154.787,144.164 154.379,142.937C153.955,141.619 153.045,140.549 151.807,139.912C151.069,139.531 150.28,139.336 149.459,139.336C148.924,139.336 148.389,139.422 147.865,139.59C146.141,140.164 144.848,141.564 144.426,143.326" style="fill:white;fill-rule:nonzero;"/>
            </g>
            <g transform="matrix(1,0,0,1,-617.603,-230.348)">
                <path d="M161.35,142.33C162.885,142.703 164.565,142.457 165.928,141.633C168.692,139.953 169.629,136.152 167.971,133.332C166.862,131.541 164.918,130.459 162.784,130.459C161.69,130.459 160.62,130.76 159.688,131.326C158.301,132.168 157.33,133.492 156.952,135.062C156.577,136.623 156.827,138.225 157.661,139.566C158.483,140.957 159.789,141.932 161.35,142.33" style="fill:white;fill-rule:nonzero;"/>
            </g>
            <g transform="matrix(1,0,0,1,-617.603,-230.348)">
                <path d="M175.973,130.756C177.819,130.756 179.559,130.053 180.869,128.776C182.151,127.541 182.903,125.748 182.936,123.854C182.969,121.953 182.276,120.125 181.034,118.842C179.703,117.467 177.91,116.709 175.987,116.709C174.151,116.709 172.416,117.408 171.098,118.678C170.143,119.613 169.471,120.793 169.159,122.08C168.596,124.426 169.262,126.875 170.944,128.633C172.248,129.965 174.006,130.723 175.889,130.756L175.971,131.783L175.973,131.783L175.973,130.756Z" style="fill:white;fill-rule:nonzero;"/>
            </g>
            <g transform="matrix(1,0,0,1,-617.603,-230.348)">
                <path d="M194.586,110.099C195.748,108.316 196.135,106.138 195.674,103.96C195.219,101.799 193.945,99.9 192.18,98.751C190.854,97.893 189.318,97.438 187.74,97.438C184.94,97.438 182.359,98.836 180.842,101.176C180.33,101.955 179.961,102.811 179.738,103.723C178.93,107.078 180.346,110.609 183.258,112.51C184.594,113.377 186.131,113.836 187.701,113.836C188.281,113.836 188.869,113.774 189.445,113.65C191.586,113.186 193.41,111.924 194.586,110.099" style="fill:white;fill-rule:nonzero;"/>
            </g>
            <g transform="matrix(1,0,0,1,-617.603,-230.348)">
                <path d="M193.103,90.796C194.136,91.166 195.224,91.356 196.326,91.356C200.367,91.356 204.005,88.818 205.384,85.043C207.201,80.1 204.628,74.59 199.654,72.759C198.595,72.373 197.49,72.179 196.374,72.179C194.97,72.179 193.605,72.484 192.318,73.088C189.999,74.173 188.246,76.097 187.376,78.504C187.246,78.861 187.142,79.211 187.054,79.566C185.919,84.279 188.519,89.11 193.103,90.796" style="fill:white;fill-rule:nonzero;"/>
            </g>
            <g transform="matrix(1,0,0,1,-617.603,-230.348)">
                <path d="M198.625,63.271C199.084,63.328 199.539,63.355 199.99,63.355C205.635,63.355 210.412,59.12 211.104,53.502C211.848,47.377 207.473,41.777 201.348,41.02C200.887,40.963 200.424,40.936 199.967,40.936C194.785,40.936 190.322,44.441 189.111,49.46C189.006,49.89 188.928,50.339 188.871,50.793C188.51,53.788 189.332,56.738 191.186,59.091C193.021,61.432 195.664,62.917 198.625,63.271" style="fill:white;fill-rule:nonzero;"/>
            </g>
            <g transform="matrix(1,0,0,1,-617.603,-230.348)">
                <path d="M139.144,133.787C139.529,132.213 139.3,130.576 138.515,129.293C137.429,127.49 135.451,126.373 133.343,126.373C132.257,126.373 131.189,126.67 130.255,127.234C128.845,128.068 127.865,129.394 127.486,130.973C127.113,132.517 127.361,134.139 128.183,135.535C129.279,137.334 131.21,138.416 133.343,138.416C134.435,138.416 135.507,138.117 136.443,137.553C137.767,136.758 138.751,135.385 139.144,133.787" style="fill:white;fill-rule:nonzero;"/>
            </g>
            <g transform="matrix(1,0,0,1,-617.603,-230.348)">
                <path d="M146.531,126.654L146.533,126.654C148.367,126.654 150.094,125.957 151.394,124.691C154.088,122.103 154.172,117.465 151.578,114.758C150.271,113.402 148.511,112.631 146.617,112.593L146.615,112.593C144.687,112.593 142.951,113.293 141.625,114.566C140.674,115.504 139.998,116.691 139.683,117.982C139.115,120.342 139.783,122.793 141.47,124.535C142.808,125.9 144.607,126.654 146.531,126.654" style="fill:white;fill-rule:nonzero;"/>
            </g>
            <g transform="matrix(1,0,0,1,-617.603,-230.348)">
                <path d="M153.791,108.439C155.113,109.293 156.65,109.747 158.228,109.747C161.035,109.747 163.619,108.343 165.139,105.996C167.51,102.33 166.379,97.037 162.719,94.669C161.389,93.803 159.85,93.346 158.268,93.346C155.471,93.346 152.891,94.742 151.367,97.08C150.859,97.867 150.492,98.723 150.277,99.618C149.467,102.983 150.877,106.528 153.791,108.439" style="fill:white;fill-rule:nonzero;"/>
            </g>
            <g transform="matrix(1,0,0,1,-617.603,-230.348)">
                <path d="M170.158,68.673C169.115,68.296 168.025,68.105 166.92,68.105C162.9,68.105 159.273,70.639 157.896,74.409C157.771,74.749 157.67,75.087 157.59,75.432C156.441,80.188 159.041,85.026 163.635,86.693C164.685,87.072 165.783,87.265 166.892,87.265C170.924,87.265 174.554,84.729 175.928,80.953C177.722,75.997 175.135,70.487 170.158,68.673" style="fill:white;fill-rule:nonzero;"/>
            </g>
            <g transform="matrix(1,0,0,1,-617.603,-230.348)">
                <path d="M171.869,36.925C171.412,36.869 170.957,36.843 170.51,36.843C165.314,36.843 160.838,40.368 159.619,45.416C159.517,45.838 159.439,46.259 159.389,46.694C159.021,49.674 159.838,52.61 161.685,54.967C163.537,57.337 166.189,58.837 169.152,59.191C169.586,59.243 170.021,59.269 170.453,59.269C176.076,59.269 180.982,54.943 181.625,49.419C182.002,46.441 181.199,43.511 179.367,41.158C177.527,38.788 174.863,37.285 171.869,36.925" style="fill:white;fill-rule:nonzero;"/>
            </g>
            <g transform="matrix(1,0,0,1,-617.603,-230.348)">
                <path d="M166.789,26.252C167.252,26.252 167.721,26.228 168.191,26.177C173.707,25.585 178.283,21.576 179.576,16.2C179.928,14.746 180.023,13.24 179.865,11.728C179.154,5.043 173.549,0 166.826,0C166.365,0 165.902,0.024 165.434,0.074C159.916,0.652 155.336,4.663 154.033,10.053C153.684,11.516 153.588,13.017 153.746,14.511C154.469,21.203 160.076,26.252 166.789,26.252" style="fill:white;fill-rule:nonzero;"/>
            </g>
            <g transform="matrix(1,0,0,1,-617.603,-230.348)">
                <path d="M62.73,118.189C62.382,117.859 61.994,117.595 61.544,117.38C60.966,117.115 60.339,116.976 59.691,116.976C57.959,116.976 56.371,117.976 55.648,119.523C55.156,120.566 55.107,121.808 55.512,122.933C55.921,124.068 56.729,124.968 57.786,125.464C58.376,125.74 59.006,125.88 59.657,125.88L59.658,125.88C61.391,125.88 62.985,124.869 63.718,123.302C64.53,121.578 64.132,119.523 62.73,118.189" style="fill:white;fill-rule:nonzero;"/>
            </g>
            <g transform="matrix(1,0,0,1,-617.603,-230.348)">
                <path d="M57.998,129.338C57.63,129.26 57.267,129.221 56.905,129.221C54.486,129.221 52.362,130.949 51.854,133.334C51.586,134.613 51.873,136.024 52.642,137.195C53.41,138.365 54.584,139.188 55.866,139.449C57.249,139.758 58.606,139.488 59.769,138.734C60.932,137.975 61.719,136.822 61.984,135.488C62.379,133.701 61.825,131.899 60.507,130.645C59.8,129.981 58.93,129.525 57.998,129.338" style="fill:white;fill-rule:nonzero;"/>
            </g>
            <g transform="matrix(1,0,0,1,-617.603,-230.348)">
                <path d="M57.337,156.004C60.641,155.928 63.294,153.176 63.243,149.871C63.211,148.24 62.545,146.723 61.368,145.606C60.252,144.543 58.798,143.957 57.275,143.957C55.499,143.981 53.998,144.629 52.879,145.783C51.758,146.945 51.158,148.471 51.191,150.072C51.262,153.233 54.093,156.004 57.253,156.004L57.252,157.029L57.253,157.029L57.337,156.004Z" style="fill:white;fill-rule:nonzero;"/>
            </g>
            <g transform="matrix(1,0,0,1,-617.603,-230.348)">
                <path d="M61.825,174.764C62.357,174.764 62.887,174.7 63.397,174.575C67.122,173.619 69.415,169.772 68.496,166.002C68.17,164.746 67.489,163.59 66.532,162.674C65.205,161.418 63.478,160.723 61.675,160.723C61.099,160.723 60.522,160.793 59.96,160.934C58.148,161.389 56.613,162.53 55.64,164.145C54.678,165.748 54.395,167.639 54.847,169.459C55.611,172.481 58.61,174.762 61.825,174.764" style="fill:white;fill-rule:nonzero;"/>
            </g>
            <g transform="matrix(1,0,0,1,-617.603,-230.348)">
                <path d="M75.229,194.268C79.247,192.2 80.842,187.254 78.78,183.245C78.355,182.413 77.8,181.664 77.125,181.024C75.596,179.565 73.583,178.764 71.462,178.764C70.176,178.764 68.894,179.073 67.753,179.657C65.791,180.661 64.334,182.373 63.658,184.477C62.99,186.557 63.17,188.764 64.167,190.69C65.544,193.385 68.462,195.123 71.604,195.123C72.89,195.123 74.11,194.836 75.229,194.268" style="fill:white;fill-rule:nonzero;"/>
            </g>
            <g transform="matrix(1,0,0,1,-617.603,-230.348)">
                <path d="M95.135,200.209C94.906,199.932 94.659,199.674 94.404,199.426C92.618,197.73 90.271,196.791 87.802,196.791C85.554,196.791 83.364,197.59 81.636,199.037C77.614,202.449 77.094,208.506 80.482,212.541C82.337,214.703 85.032,215.949 87.871,215.949C90.106,215.949 92.271,215.162 93.971,213.729C98.011,210.328 98.533,204.262 95.135,200.209" style="fill:white;fill-rule:nonzero;"/>
            </g>
            <g transform="matrix(1,0,0,1,-617.603,-230.348)">
                <path d="M77.627,113.373C77.273,113.297 76.91,113.262 76.552,113.262C75.557,113.262 74.581,113.553 73.729,114.105C72.573,114.861 71.784,116.021 71.509,117.375C71.228,118.668 71.506,120.076 72.271,121.25C73.03,122.416 74.193,123.234 75.462,123.492C76.843,123.793 78.204,123.525 79.368,122.777C80.526,122.035 81.325,120.881 81.621,119.527C81.986,117.746 81.42,115.93 80.105,114.678C79.416,114.023 78.56,113.572 77.627,113.373" style="fill:white;fill-rule:nonzero;"/>
            </g>
            <g transform="matrix(1,0,0,1,-617.603,-230.348)">
                <path d="M76.982,140.064C80.294,139.964 82.942,137.195 82.862,133.892C82.828,132.273 82.165,130.771 80.997,129.658C79.883,128.601 78.442,128.017 76.934,128.017L76.719,128.021C75.125,128.039 73.628,128.681 72.504,129.832C71.388,131 70.787,132.535 70.818,134.15C70.887,137.355 73.687,140.064 76.931,140.064L76.93,141.091L76.982,140.064Z" style="fill:white;fill-rule:nonzero;"/>
            </g>
            <g transform="matrix(1,0,0,1,-617.603,-230.348)">
                <path d="M75.257,148.211C74.302,149.822 74.024,151.707 74.48,153.512C75.234,156.539 78.218,158.818 81.423,158.818C81.959,158.818 82.49,158.754 83.003,158.625C86.754,157.684 89.046,153.859 88.111,150.104C87.78,148.809 87.098,147.639 86.135,146.723C84.819,145.473 83.095,144.783 81.283,144.783C80.709,144.783 80.134,144.854 79.571,144.992C77.767,145.453 76.231,146.596 75.257,148.211" style="fill:white;fill-rule:nonzero;"/>
            </g>
            <g transform="matrix(1,0,0,1,-617.603,-230.348)">
                <path d="M83.295,168.508C82.626,170.592 82.805,172.803 83.799,174.731C85.166,177.432 88.083,179.172 91.233,179.172L91.234,179.172C92.495,179.172 93.739,178.879 94.829,178.324C98.851,176.27 100.451,171.319 98.398,167.291C97.977,166.459 97.42,165.709 96.74,165.059C95.225,163.619 93.223,162.824 91.106,162.824C89.816,162.824 88.525,163.133 87.376,163.715C85.416,164.711 83.967,166.414 83.295,168.508" style="fill:white;fill-rule:nonzero;"/>
            </g>
            <g transform="matrix(1,0,0,1,-617.603,-230.348)">
                <path d="M114.763,184.287C114.519,183.992 114.265,183.728 114.001,183.471C112.23,181.789 109.894,180.855 107.433,180.855C105.185,180.855 102.992,181.652 101.257,183.098C97.242,186.51 96.719,192.576 100.099,196.611C101.917,198.791 104.582,200.039 107.411,200.039C109.662,200.039 111.86,199.242 113.599,197.795C115.563,196.142 116.767,193.824 116.985,191.271C117.205,188.724 116.415,186.246 114.763,184.287" style="fill:white;fill-rule:nonzero;"/>
            </g>
            <g transform="matrix(1,0,0,1,-617.603,-230.348)">
                <path d="M139.051,200.309C138.733,200.008 138.383,199.713 138.016,199.436C136.043,197.957 133.713,197.174 131.283,197.174C130.748,197.174 130.211,197.213 129.672,197.291C126.727,197.711 124.121,199.258 122.332,201.645C120.543,204.022 119.783,206.959 120.192,209.914C120.602,212.889 122.151,215.522 124.553,217.33C126.506,218.801 128.832,219.579 131.278,219.579C134.838,219.579 138.106,217.955 140.24,215.129C143.664,210.584 143.153,204.213 139.051,200.309" style="fill:white;fill-rule:nonzero;"/>
            </g>
            <g transform="matrix(1,0,0,1,-617.603,-230.348)">
                <path d="M95.21,116.578C98.535,116.516 101.187,113.771 101.124,110.455C101.108,108.819 100.449,107.305 99.272,106.186C98.132,105.103 96.625,104.508 95.025,104.508C91.673,104.585 89.03,107.342 89.094,110.651C89.15,113.81 91.945,116.58 95.075,116.58L95.075,117.599L95.077,117.599L95.21,116.578Z" style="fill:white;fill-rule:nonzero;"/>
            </g>
            <g transform="matrix(1,0,0,1,-617.603,-230.348)">
                <path d="M92.755,130.031C93.503,133.062 96.489,135.343 99.703,135.343C100.234,135.343 100.76,135.281 101.267,135.158C103.096,134.705 104.643,133.564 105.618,131.947C106.577,130.343 106.859,128.457 106.408,126.635C106.072,125.34 105.384,124.164 104.42,123.246C103.105,121.99 101.385,121.301 99.582,121.301C99.003,121.301 98.423,121.373 97.857,121.515C94.103,122.482 91.811,126.304 92.755,130.031" style="fill:white;fill-rule:nonzero;"/>
            </g>
            <g transform="matrix(1,0,0,1,-617.603,-230.348)">
                <path d="M102.076,151.283C103.448,153.965 106.362,155.697 109.5,155.697L109.501,155.697C110.764,155.697 112.007,155.404 113.096,154.847C117.123,152.801 118.73,147.853 116.682,143.814C116.254,142.982 115.696,142.236 115.028,141.599C113.5,140.146 111.487,139.345 109.36,139.345C108.072,139.345 106.784,139.654 105.635,140.234C101.612,142.295 100.013,147.254 102.076,151.283" style="fill:white;fill-rule:nonzero;"/>
            </g>
            <g transform="matrix(1,0,0,1,-617.603,-230.348)">
                <path d="M118.367,173.146C120.191,175.312 122.855,176.558 125.678,176.558C127.939,176.558 130.144,175.753 131.888,174.292C135.914,170.896 136.437,164.845 133.053,160.802C132.822,160.531 132.578,160.271 132.32,160.029C130.523,158.316 128.178,157.376 125.713,157.376C123.463,157.376 121.271,158.177 119.543,159.63C115.502,163.042 114.973,169.105 118.367,173.146" style="fill:white;fill-rule:nonzero;"/>
            </g>
            <g transform="matrix(1,0,0,1,-617.603,-230.348)">
                <path d="M158.527,191.648C161.943,187.091 161.414,180.705 157.298,176.793C156.984,176.494 156.66,176.214 156.306,175.953C154.343,174.472 152.021,173.689 149.588,173.689C149.058,173.689 148.525,173.728 147.992,173.802C145.015,174.22 142.392,175.769 140.603,178.16C138.82,180.546 138.08,183.519 138.517,186.531C138.951,189.505 140.482,192.105 142.83,193.849C144.798,195.343 147.123,196.13 149.558,196.13C150.074,196.13 150.591,196.095 151.111,196.023C154.084,195.615 156.716,194.06 158.527,191.648" style="fill:white;fill-rule:nonzero;"/>
            </g>
            <g transform="matrix(1,0,0,1,-617.603,-230.348)">
                <path d="M190.717,189.639C189.631,188.607 188.381,187.772 186.998,187.153C185.317,186.409 183.533,186.034 181.703,186.034C176.496,186.034 171.776,189.095 169.674,193.832C167.428,198.909 168.613,204.877 172.621,208.683C173.699,209.707 174.955,210.542 176.354,211.171C178.033,211.916 179.815,212.296 181.645,212.296C186.84,212.296 191.555,209.235 193.66,204.496C195.918,199.43 194.737,193.458 190.717,189.639" style="fill:white;fill-rule:nonzero;"/>
            </g>
        </g>
    </g>
</svg>
