<?xml version="1.0" encoding="UTF-8" standalone="no"?>
<!DOCTYPE svg PUBLIC "-//W3C//DTD SVG 1.1//EN" "http://www.w3.org/Graphics/SVG/1.1/DTD/svg11.dtd">

<svg height="100%" width="100%" preserveAspectRatio="xMidYMid meet" xmlns="http://www.w3.org/2000/svg">
    <circle cx="664.199939320342" cy="72.210808734743" r="40.933813294788" />
    <circle cx="180.145463294788" cy="405.443484260443" r="40.933813294788" />
    <circle cx="675.477980468286" cy="182.263479886516" r="35.470732993072" />
    <circle cx="710.864671652716" cy="658.142486665977" r="40.933813294788" />
    <circle cx="234.774551836933" cy="253.885128863586" r="35.470732993072" />
    <circle cx="269.680116435983" cy="340.852313371934" r="35.470732993072" />
    <circle cx="552.265021033642" cy="686.653604369073" r="35.470732993072" />
    <circle cx="609.754174354162" cy="613.009867118453" r="35.470732993072" />
    <circle cx="768.446608327182" cy="195.048933341931" r="35.470732993072" />
    <circle cx="692.557909183782" cy="421.987663932189" r="22.359430059295" />
    <circle cx="477.328140186954" cy="630.426468952513" r="30.108566788546" />
    <circle cx="534.682225734073" cy="556.71537267863" r="30.108566788546" />
    <circle cx="831.132930777969" cy="316.843734021542" r="30.108566788546" />
    <circle cx="757.181376942778" cy="288.180517659422" r="30.108566788546" />
    <circle cx="664.315552519531" cy="275.488969937234" r="30.108566788546" />
    <circle cx="321.013881514347" cy="216.76646005035" r="30.108566788546" />
    <circle cx="356.161880038223" cy="304.024584788129" r="30.108566788546" />
    <circle cx="308.465095556869" cy="138.542024556474" r="30.108566788546" />
    <circle cx="415.321353325711" cy="680.663970400532" r="30.108566788546" />
    <circle cx="483.30873818896" cy="495.350253305951" r="25.769649375506" />
    <circle cx="386.859107920464" cy="124.016061763076" r="25.769649375506" />
    <circle cx="425.682077140077" cy="569.464478938325" r="25.769649375506" />
    <circle cx="399.539757177164" cy="203.032628634715" r="25.769649375506" />
    <circle cx="364.075727553686" cy="619.305495838527" r="25.769649375506" />
    <circle cx="434.756733227759" cy="289.732768205875" r="25.769649375506" />
    <circle cx="636.978492344087" cy="350.566733783312" r="25.769649375506" />
    <circle cx="804.120921402297" cy="391.91067260078" r="25.769649375506" />
    <circle cx="729.75069569552" cy="363.298508229607" r="25.769649375506" />
    <circle cx="767.257854137487" cy="450.218528408579" r="22.359430059295" />
    <circle cx="333.29829835191" cy="559.056493196384" r="22.359430059295" />
    <circle cx="600.002194902767" cy="407.828336904263" r="22.359430059295" />
    <circle cx="502.565285658806" cy="293.374409116858" r="22.359430059295" />
    <circle cx="467.491006307455" cy="206.513980771193" r="22.359430059295" />
    <circle cx="454.588361815311" cy="127.908603242596" r="22.359430059295" />
    <circle cx="394.83619906849" cy="508.755561052588" r="22.359430059295" />
    <circle cx="452.255854338566" cy="435.046123948078" r="22.359430059295" />
    <circle cx="510.243083798255" cy="143.947826102186" r="18.972567618599" />
    <circle cx="522.963544986719" cy="222.538718431504" r="18.972567618599" />
    <circle cx="319.3118421329" cy="503.194724768718" r="18.972567618599" />
    <circle cx="438.272358598242" cy="380.12612120269" r="18.972567618599" />
    <circle cx="651.309405137983" cy="460.665829958109" r="18.972567618599" />
    <circle cx="725.830444460838" cy="488.853832559035" r="18.972567618599" />
    <circle cx="558.310595036232" cy="309.270276489366" r="18.972567618599" />
    <circle cx="380.752648908438" cy="454.497485555114" r="18.972567618599" />
    <circle cx="558.505986629429" cy="447.89175482599" r="18.972567618599" />
    <circle cx="553.244711749181" cy="167.630785329984" r="16.430176842831" />
    <circle cx="565.662236262994" cy="246.041308055475" r="16.430176842831" />
    <circle cx="609.590957633705" cy="485.939208761117" r="16.430176842831" />
    <circle cx="683.549855733325" cy="514.360820783097" r="16.430176842831" />
    <circle cx="379.849629710926" cy="403.927670374726" r="16.430176842831" />
    <circle cx="318.42491850494" cy="454.230863543452" r="16.430176842831" />
    <circle cx="583.936677461891" cy="195.926536341944" r="14.131776683154" />
    <circle cx="318.144209819975" cy="409.79188252514" r="14.131776683154" />
    <circle cx="644.004440249606" cy="527.094335730597" r="14.131776683154" />
</svg>
